# xmcd
# 
# Track frame offsets:
#     150
#     18007
#     34235
#     50625
#     64229
#     79822
#     97310
#     114521
#     130872
#     152103
#     174100
#     190092
#     207522
#     221810
#     241928
#     260599
# 
# Disc length: 3737
# 
# Revision: 0
# Processed by: cddbd v1.5.2PL0 Copyright (c) Steve Scherf et al.
# Submitted via: BonkEnc v1.0
# 
DISCID=e40e9710
DTITLE=Bruno and Marrone - Ao Vivo
DYEAR=2004
DGENRE=Sertanejo (BR)
TTITLE0=Inevitável
TTITLE1=Doce Desejo
TTITLE2=Deixa
TTITLE3=Trânsito Parado
TTITLE4=O Amor Esá Aqui
TTITLE5=Apaziguar
TTITLE6=Meu Disfarce
TTITLE7=Te Amar Foi Ilusão
TTITLE8=Será
TTITLE9=Se Tiver Coragem Joga Fora
TTITLE10=Ligação Urbana
TTITLE11=Sonhos Perdidos
TTITLE12=Grito de Alerta
TTITLE13=Se Não Tivesse Ido
TTITLE14=Menina
TTITLE15=Vai Dar Namoro
EXTD=
EXTT0=
EXTT1=
EXTT2=
EXTT3=
EXTT4=
EXTT5=
EXTT6=
EXTT7=
EXTT8=
EXTT9=
EXTT10=
EXTT11=
EXTT12=
EXTT13=
EXTT14=
EXTT15=
PLAYORDER=
